<svg width="137" height="228" viewBox="0 0 137 228" fill="none" xmlns="http://www.w3.org/2000/svg">
<rect x="0.155762" y="0.434448" width="134.558" height="226.249" rx="16.5047" fill="url(#paint0_linear_3_2928)"/>
<mask id="mask0_3_2928" style="mask-type:alpha" maskUnits="userSpaceOnUse" x="2" y="1" width="135" height="227">
<rect x="2.30289" y="1.05884" width="134.558" height="226.249" rx="16.5047" fill="url(#paint1_linear_3_2928)"/>
</mask>
<g mask="url(#mask0_3_2928)">
<path d="M3.77522 302.162H159.037C163.586 302.162 168.311 301.874 172.047 299.279C175.813 296.663 179.91 291.881 179.91 283.458C179.91 275.034 175.813 270.253 172.047 267.637C168.311 265.041 163.586 264.753 159.037 264.753H26.8677C21.1076 264.753 15.6279 262.267 11.8349 257.932V257.932C8.64881 254.29 6.89264 249.616 6.89264 244.778V158.761C6.89264 148.43 15.267 140.056 25.5972 140.056V140.056C35.9274 140.056 44.3018 148.43 44.3018 158.761V208.639C44.3018 216.387 50.5825 222.668 58.3302 222.668V222.668C66.0779 222.668 72.3586 216.387 72.3586 208.639V184.479C72.3586 174.58 80.384 166.554 90.2838 166.554V166.554C100.184 166.554 108.209 174.58 108.209 184.479V230.461" stroke="#36B2B7" stroke-width="12.4697"/>
<rect x="38.6908" y="31.4487" width="20.9607" height="32.5232" rx="2.37707" fill="#EEEFF0"/>
<circle cx="108.961" cy="41.2015" r="9.06506" stroke="#59E5E8" stroke-width="1.37539"/>
<circle cx="108.961" cy="54.7052" r="9.06506" stroke="#59E5E8" stroke-width="1.37539"/>
<path d="M24.4903 53.1358H19.8849V52.3016H24.4903V53.1358ZM18.9986 52.7187C18.9986 52.8809 18.9464 53.0171 18.8421 53.1271C18.7379 53.2314 18.6104 53.2835 18.4598 53.2835C18.3034 53.2835 18.1731 53.2314 18.0688 53.1271C17.9645 53.0171 17.9124 52.8809 17.9124 52.7187C17.9124 52.5565 17.9645 52.4233 18.0688 52.319C18.1673 52.2089 18.2918 52.1539 18.4424 52.1539C18.5988 52.1539 18.7321 52.206 18.8421 52.3103C18.9464 52.4146 18.9986 52.5507 18.9986 52.7187ZM19.8414 48.2498C19.8414 47.8732 19.9138 47.543 20.0587 47.2592C20.2035 46.9695 20.4236 46.7436 20.7191 46.5814C21.0145 46.4192 21.3881 46.3381 21.84 46.3381H24.4903V47.1723H21.9356C21.4895 47.1723 21.1535 47.2823 20.9276 47.5025C20.7017 47.7168 20.5887 48.0209 20.5887 48.4149C20.5887 48.7103 20.6467 48.9681 20.7625 49.1882C20.8784 49.4084 21.0493 49.5792 21.2752 49.7009C21.5011 49.8168 21.7821 49.8747 22.1181 49.8747H24.4903V50.7089H19.8849V49.9094H21.1275L20.7973 50.0398C20.496 49.8892 20.2614 49.6575 20.0934 49.3446C19.9254 49.0318 19.8414 48.6669 19.8414 48.2498ZM24.4903 43.4648H19.1637V45.5503H18.4077V40.5191H19.1637V42.6046H24.4903V43.4648ZM24.4903 39.8047H19.8849V39.0052H21.1362L20.8233 39.0834C20.5047 38.956 20.2614 38.7416 20.0934 38.4404C19.9254 38.1392 19.8414 37.7684 19.8414 37.3282H20.6495C20.6438 37.3629 20.6409 37.3977 20.6409 37.4324C20.6409 37.4614 20.6409 37.4904 20.6409 37.5193C20.6409 37.9654 20.7741 38.3188 21.0406 38.5794C21.307 38.8401 21.6923 38.9705 22.1963 38.9705H24.4903V39.8047ZM24.4903 33.7806H23.5171L23.3346 33.8241H21.6749C21.3215 33.8241 21.0493 33.9284 20.8581 34.1369C20.6611 34.3397 20.5627 34.6467 20.5627 35.058C20.5627 35.3303 20.609 35.5967 20.7017 35.8574C20.7886 36.1181 20.9073 36.3382 21.058 36.5178L20.4323 36.8654C20.2411 36.6279 20.0963 36.344 19.9978 36.0138C19.8936 35.6778 19.8414 35.3274 19.8414 34.9624C19.8414 34.331 19.9949 33.8444 20.302 33.5026C20.609 33.1608 21.0782 32.9899 21.7097 32.9899H24.4903V33.7806ZM24.5424 35.2926C24.5424 35.6344 24.4845 35.9356 24.3686 36.1963C24.2528 36.4512 24.0935 36.6481 23.8907 36.7872C23.6822 36.9262 23.4475 36.9957 23.1869 36.9957C22.9378 36.9957 22.7118 36.9378 22.5091 36.8219C22.3063 36.7003 22.1441 36.5062 22.0225 36.2397C21.9008 35.9675 21.84 35.6025 21.84 35.1449V33.6851H22.4396V35.1101C22.4396 35.5272 22.5091 35.8082 22.6481 35.953C22.7871 36.0978 22.9551 36.1702 23.1521 36.1702C23.378 36.1702 23.5605 36.0804 23.6995 35.9009C23.8328 35.7213 23.8994 35.4722 23.8994 35.1536C23.8994 34.8407 23.8299 34.5685 23.6908 34.3368C23.5518 34.0992 23.3491 33.9284 23.0826 33.8241L23.6561 33.659C23.9284 33.769 24.1456 33.9631 24.3078 34.2412C24.4642 34.5192 24.5424 34.8697 24.5424 35.2926ZM24.5424 29.4389C24.5424 29.9081 24.441 30.3281 24.2383 30.6989C24.0355 31.0638 23.7575 31.3506 23.4041 31.5591C23.0507 31.7677 22.6452 31.8719 22.1876 31.8719C21.7299 31.8719 21.3244 31.7677 20.9711 31.5591C20.6177 31.3506 20.3425 31.0638 20.1456 30.6989C19.9428 30.3281 19.8414 29.9081 19.8414 29.4389C19.8414 29.0218 19.9254 28.6511 20.0934 28.3267C20.2556 27.9965 20.4989 27.7416 20.8233 27.562L21.2317 28.1963C21.0058 28.3469 20.8407 28.5323 20.7364 28.7524C20.6264 28.9668 20.5713 29.1985 20.5713 29.4476C20.5713 29.7488 20.638 30.0182 20.7712 30.2557C20.9044 30.4932 21.0927 30.6815 21.336 30.8205C21.5735 30.9596 21.8574 31.0291 22.1876 31.0291C22.5178 31.0291 22.8045 30.9596 23.0478 30.8205C23.2911 30.6815 23.4794 30.4932 23.6126 30.2557C23.7459 30.0182 23.8125 29.7488 23.8125 29.4476C23.8125 29.1985 23.7604 28.9668 23.6561 28.7524C23.546 28.5323 23.378 28.3469 23.1521 28.1963L23.5518 27.562C23.8704 27.7416 24.1166 27.9965 24.2904 28.3267C24.4584 28.6511 24.5424 29.0218 24.5424 29.4389ZM23.378 25.8636L22.3092 25.8462L19.8849 23.196V22.188L21.8834 24.2213L22.2658 24.6732L23.378 25.8636ZM24.4903 26.5414H18.0427V25.7072H24.4903V26.5414ZM24.4903 23.0222L22.2484 24.8296L21.5793 24.2908L24.4903 21.9968V23.0222Z" fill="#064C4E"/>
<path d="M10.4953 66.2218H22.2715C22.6165 66.2218 22.9749 66.2 23.2583 66.0031C23.5439 65.8047 23.8546 65.442 23.8546 64.8031C23.8546 64.1642 23.5439 63.8016 23.2583 63.6031C22.9749 63.4063 22.6165 63.3844 22.2715 63.3844H12.2468C11.8099 63.3844 11.3943 63.1958 11.1066 62.8671V62.8671C10.865 62.5909 10.7318 62.2364 10.7318 61.8694V55.3452C10.7318 54.5617 11.3669 53.9265 12.1505 53.9265V53.9265C12.934 53.9265 13.5691 54.5617 13.5691 55.3452V59.1284C13.5691 59.716 14.0455 60.1924 14.6332 60.1924V60.1924C15.2208 60.1924 15.6972 59.716 15.6972 59.1284V57.2959C15.6972 56.545 16.3059 55.9363 17.0567 55.9363V55.9363C17.8076 55.9363 18.4163 56.545 18.4163 57.2959V60.7835" stroke="#05494B" stroke-width="0.945789"/>
</g>
<defs>
<linearGradient id="paint0_linear_3_2928" x1="67.4345" y1="0.434448" x2="67.4345" y2="226.684" gradientUnits="userSpaceOnUse">
<stop stop-color="#0DA9AF"/>
<stop offset="1" stop-color="#054649"/>
</linearGradient>
<linearGradient id="paint1_linear_3_2928" x1="69.5817" y1="1.05884" x2="69.5817" y2="227.308" gradientUnits="userSpaceOnUse">
<stop stop-color="#0DA9AF"/>
<stop offset="1" stop-color="#054649"/>
</linearGradient>
</defs>
</svg>
