<svg width="619" height="83" viewBox="0 0 619 83" fill="none" xmlns="http://www.w3.org/2000/svg">
<mask id="path-1-outside-1_104_104" maskUnits="userSpaceOnUse" x="-1" y="-1" width="622" height="85" fill="black">
<rect fill="white" x="-1" y="-1" width="622" height="85"/>
<path d="M25.3133 35.5562H60.1309V55.6781H25.3133V35.5562ZM27.122 81H0.443526V1.86898H64.7657V21.9909H27.122V81ZM73.1937 81V1.86898H99.8722V81H73.1937ZM112.715 81V1.86898H134.646L174.889 50.0259H164.715V1.86898H190.716V81H168.785L128.541 32.8431H138.715V81H112.715ZM220.753 81V22.5561H197.579V1.86898H270.605V22.5561H247.431V81H220.753ZM277.535 81V1.86898H315.63C323.016 1.86898 329.384 3.07478 334.735 5.4864C340.161 7.89801 344.344 11.3647 347.283 15.8865C350.222 20.3329 351.692 25.6083 351.692 31.7127C351.692 37.8171 350.222 43.0925 347.283 47.5389C344.344 51.9099 340.161 55.2636 334.735 57.5998C329.384 59.9361 323.016 61.1042 315.63 61.1042H292.343L304.213 50.1389V81H277.535ZM324.9 81L305.457 52.1737H333.718L353.387 81H324.9ZM304.213 53.0781L292.343 40.9823H313.935C317.628 40.9823 320.341 40.1533 322.074 38.4953C323.883 36.8374 324.787 34.5765 324.787 31.7127C324.787 28.8489 323.883 26.588 322.074 24.93C320.341 23.272 317.628 22.443 313.935 22.443H292.343L304.213 10.3473V53.0781ZM353.174 81L387.766 1.86898H413.992L448.584 81H421.001L395.453 14.5299H405.853L380.305 81H353.174ZM373.749 67.2086L380.531 47.9911H416.931L423.714 67.2086H373.749ZM492.66 82.8087C486.329 82.8087 480.451 81.829 475.025 79.8696C469.674 77.8348 465.001 74.971 461.007 71.2782C457.088 67.5854 454.036 63.2144 451.851 58.165C449.665 53.1157 448.572 47.5389 448.572 41.4345C448.572 35.3301 449.665 29.7532 451.851 24.7039C454.036 19.6546 457.088 15.2836 461.007 11.5908C465.001 7.89801 469.674 5.0719 475.025 3.11247C480.451 1.07767 486.329 0.0602706 492.66 0.0602706C500.422 0.0602706 507.28 1.4168 513.234 4.12987C519.263 6.84293 524.237 10.7618 528.156 15.8865L511.312 30.9214C508.976 27.9822 506.376 25.7213 503.512 24.1387C500.723 22.4807 497.558 21.6517 494.016 21.6517C491.228 21.6517 488.703 22.1039 486.442 23.0083C484.181 23.9126 482.222 25.2315 480.564 26.9648C478.981 28.6982 477.738 30.8083 476.833 33.2953C475.929 35.7069 475.477 38.42 475.477 41.4345C475.477 44.449 475.929 47.1998 476.833 49.6867C477.738 52.0983 478.981 54.1708 480.564 55.9042C482.222 57.6375 484.181 58.9564 486.442 59.8607C488.703 60.7651 491.228 61.2172 494.016 61.2172C497.558 61.2172 500.723 60.4259 503.512 58.8433C506.376 57.1853 508.976 54.8868 511.312 51.9476L528.156 66.9825C524.237 72.0318 519.263 75.9507 513.234 78.7391C507.28 81.4522 500.422 82.8087 492.66 82.8087ZM559.711 64.0434L558.241 34.7649L588.085 1.86898H617.137L583.676 38.7214L568.867 53.8694L559.711 64.0434ZM535.859 81V1.86898H562.085V81H535.859ZM587.859 81L564.572 50.2519L581.868 31.9388L618.72 81H587.859Z"/>
</mask>
<path d="M25.3133 35.5562V34.6599H24.417V35.5562H25.3133ZM60.1309 35.5562H61.0272V34.6599H60.1309V35.5562ZM60.1309 55.6781V56.5743H61.0272V55.6781H60.1309ZM25.3133 55.6781H24.417V56.5743H25.3133V55.6781ZM27.122 81V81.8963H28.0182V81H27.122ZM0.443526 81H-0.452727V81.8963H0.443526V81ZM0.443526 1.86898V0.972723H-0.452727V1.86898H0.443526ZM64.7657 1.86898H65.662V0.972723H64.7657V1.86898ZM64.7657 21.9909V22.8871H65.662V21.9909H64.7657ZM27.122 21.9909V21.0946H26.2257V21.9909H27.122ZM25.3133 36.4524H60.1309V34.6599H25.3133V36.4524ZM59.2347 35.5562V55.6781H61.0272V35.5562H59.2347ZM60.1309 54.7818H25.3133V56.5743H60.1309V54.7818ZM26.2095 55.6781V35.5562H24.417V55.6781H26.2095ZM27.122 80.1037H0.443526V81.8963H27.122V80.1037ZM1.33978 81V1.86898H-0.452727V81H1.33978ZM0.443526 2.76523H64.7657V0.972723H0.443526V2.76523ZM63.8695 1.86898V21.9909H65.662V1.86898H63.8695ZM64.7657 21.0946H27.122V22.8871H64.7657V21.0946ZM26.2257 21.9909V81H28.0182V21.9909H26.2257ZM73.1937 81H72.2975V81.8963H73.1937V81ZM73.1937 1.86898V0.972723H72.2975V1.86898H73.1937ZM99.8722 1.86898H100.768V0.972723H99.8722V1.86898ZM99.8722 81V81.8963H100.768V81H99.8722ZM74.09 81V1.86898H72.2975V81H74.09ZM73.1937 2.76523H99.8722V0.972723H73.1937V2.76523ZM98.9759 1.86898V81H100.768V1.86898H98.9759ZM99.8722 80.1037H73.1937V81.8963H99.8722V80.1037ZM112.715 81H111.819V81.8963H112.715V81ZM112.715 1.86898V0.972723H111.819V1.86898H112.715ZM134.646 1.86898L135.333 1.29426L135.065 0.972723H134.646V1.86898ZM174.889 50.0259V50.9221H176.806L175.577 49.4511L174.889 50.0259ZM164.715 50.0259H163.819V50.9221H164.715V50.0259ZM164.715 1.86898V0.972723H163.819V1.86898H164.715ZM190.716 1.86898H191.612V0.972723H190.716V1.86898ZM190.716 81V81.8963H191.612V81H190.716ZM168.785 81L168.097 81.5747L168.366 81.8963H168.785V81ZM128.541 32.8431V31.9469H126.624L127.854 33.4178L128.541 32.8431ZM138.715 32.8431H139.612V31.9469H138.715V32.8431ZM138.715 81V81.8963H139.612V81H138.715ZM113.611 81V1.86898H111.819V81H113.611ZM112.715 2.76523H134.646V0.972723H112.715V2.76523ZM133.958 2.4437L174.202 50.6006L175.577 49.4511L135.333 1.29426L133.958 2.4437ZM174.889 49.1296H164.715V50.9221H174.889V49.1296ZM165.612 50.0259V1.86898H163.819V50.0259H165.612ZM164.715 2.76523H190.716V0.972723H164.715V2.76523ZM189.819 1.86898V81H191.612V1.86898H189.819ZM190.716 80.1037H168.785V81.8963H190.716V80.1037ZM169.473 80.4253L129.229 32.2684L127.854 33.4178L168.097 81.5747L169.473 80.4253ZM128.541 33.7394H138.715V31.9469H128.541V33.7394ZM137.819 32.8431V81H139.612V32.8431H137.819ZM138.715 80.1037H112.715V81.8963H138.715V80.1037ZM220.753 81H219.857V81.8963H220.753V81ZM220.753 22.5561H221.649V21.6598H220.753V22.5561ZM197.579 22.5561H196.682V23.4523H197.579V22.5561ZM197.579 1.86898V0.972723H196.682V1.86898H197.579ZM270.605 1.86898H271.502V0.972723H270.605V1.86898ZM270.605 22.5561V23.4523H271.502V22.5561H270.605ZM247.431 22.5561V21.6598H246.535V22.5561H247.431ZM247.431 81V81.8963H248.327V81H247.431ZM221.649 81V22.5561H219.857V81H221.649ZM220.753 21.6598H197.579V23.4523H220.753V21.6598ZM198.475 22.5561V1.86898H196.682V22.5561H198.475ZM197.579 2.76523H270.605V0.972723H197.579V2.76523ZM269.709 1.86898V22.5561H271.502V1.86898H269.709ZM270.605 21.6598H247.431V23.4523H270.605V21.6598ZM246.535 22.5561V81H248.327V22.5561H246.535ZM247.431 80.1037H220.753V81.8963H247.431V80.1037ZM277.535 81H276.638V81.8963H277.535V81ZM277.535 1.86898V0.972723H276.638V1.86898H277.535ZM334.735 5.4864L334.367 6.3035L334.371 6.3054L334.735 5.4864ZM347.283 15.8865L346.531 16.3749L346.535 16.3807L347.283 15.8865ZM347.283 47.5389L348.027 48.039L348.031 48.0331L347.283 47.5389ZM334.735 57.5998L334.381 56.7766L334.376 56.7785L334.735 57.5998ZM292.343 61.1042L291.735 60.4459L290.052 62.0005H292.343V61.1042ZM304.213 50.1389H305.109V48.0908L303.605 49.4806L304.213 50.1389ZM304.213 81V81.8963H305.109V81H304.213ZM324.9 81L324.157 81.5012L324.424 81.8963H324.9V81ZM305.457 52.1737V51.2774H303.771L304.713 52.6749L305.457 52.1737ZM333.718 52.1737L334.458 51.6685L334.191 51.2774H333.718V52.1737ZM353.387 81V81.8963H355.084L354.128 80.4948L353.387 81ZM304.213 53.0781L303.573 53.7058L305.109 55.271V53.0781H304.213ZM292.343 40.9823V40.0861H290.208L291.704 41.6101L292.343 40.9823ZM322.074 38.4953L321.468 37.8347L321.461 37.8411L321.454 37.8477L322.074 38.4953ZM322.074 24.93L321.454 25.5777L321.461 25.5843L321.468 25.5907L322.074 24.93ZM292.343 22.443L291.704 21.8153L290.208 23.3393H292.343V22.443ZM304.213 10.3473H305.109V8.15436L303.573 9.71957L304.213 10.3473ZM278.431 81V1.86898H276.638V81H278.431ZM277.535 2.76523H315.63V0.972723H277.535V2.76523ZM315.63 2.76523C322.921 2.76523 329.158 3.9557 334.367 6.30349L335.103 4.6693C329.611 2.19387 323.111 0.972723 315.63 0.972723V2.76523ZM334.371 6.3054C339.655 8.654 343.696 12.013 346.531 16.3749L348.034 15.398C344.991 10.7164 340.667 7.14201 335.099 4.66739L334.371 6.3054ZM346.535 16.3807C349.364 20.66 350.795 25.7578 350.795 31.7127H352.588C352.588 25.4588 351.08 20.0057 348.031 15.3923L346.535 16.3807ZM350.795 31.7127C350.795 37.6676 349.364 42.7653 346.535 47.0447L348.031 48.0331C351.08 43.4196 352.588 37.9666 352.588 31.7127H350.795ZM346.539 47.0388C343.707 51.25 339.668 54.4999 334.381 56.7766L335.089 58.423C340.654 56.0272 344.98 52.5698 348.027 48.039L346.539 47.0388ZM334.376 56.7785C329.164 59.0541 322.924 60.2079 315.63 60.2079V62.0005C323.108 62.0005 329.604 60.8181 335.094 58.4212L334.376 56.7785ZM315.63 60.2079H292.343V62.0005H315.63V60.2079ZM292.952 61.7625L304.821 50.7972L303.605 49.4806L291.735 60.4459L292.952 61.7625ZM303.317 50.1389V81H305.109V50.1389H303.317ZM304.213 80.1037H277.535V81.8963H304.213V80.1037ZM325.643 80.4988L306.2 51.6725L304.713 52.6749L324.157 81.5012L325.643 80.4988ZM305.457 53.07H333.718V51.2774H305.457V53.07ZM332.977 52.6789L352.647 81.5052L354.128 80.4948L334.458 51.6685L332.977 52.6789ZM353.387 80.1037H324.9V81.8963H353.387V80.1037ZM304.853 52.4503L292.983 40.3546L291.704 41.6101L303.573 53.7058L304.853 52.4503ZM292.343 41.8786H313.935V40.0861H292.343V41.8786ZM313.935 41.8786C317.737 41.8786 320.723 41.0281 322.694 39.143L321.454 37.8477C319.959 39.2785 317.518 40.0861 313.935 40.0861V41.8786ZM322.68 39.156C324.705 37.2995 325.683 34.7817 325.683 31.7127H323.891C323.891 34.3712 323.061 36.3752 321.468 37.8347L322.68 39.156ZM325.683 31.7127C325.683 28.6436 324.705 26.1258 322.68 24.2693L321.468 25.5907C323.061 27.0502 323.891 29.0541 323.891 31.7127H325.683ZM322.694 24.2823C320.723 22.3972 317.737 21.5468 313.935 21.5468V23.3393C317.518 23.3393 319.959 24.1468 321.454 25.5777L322.694 24.2823ZM313.935 21.5468H292.343V23.3393H313.935V21.5468ZM292.983 23.0708L304.853 10.975L303.573 9.71957L291.704 21.8153L292.983 23.0708ZM303.317 10.3473V53.0781H305.109V10.3473H303.317ZM353.174 81L352.353 80.641L351.805 81.8963H353.174V81ZM387.766 1.86898V0.972723H387.18L386.945 1.50999L387.766 1.86898ZM413.992 1.86898L414.814 1.50999L414.579 0.972723H413.992V1.86898ZM448.584 81V81.8963H449.954L449.405 80.641L448.584 81ZM421.001 81L420.164 81.3215L420.385 81.8963H421.001V81ZM395.453 14.5299V13.6337H394.148L394.616 14.8515L395.453 14.5299ZM405.853 14.5299L406.69 14.8515L407.158 13.6337H405.853V14.5299ZM380.305 81V81.8963H380.921L381.142 81.3215L380.305 81ZM373.749 67.2086L372.903 66.9103L372.482 68.1048H373.749V67.2086ZM380.531 47.9911V47.0948H379.897L379.686 47.6928L380.531 47.9911ZM416.931 47.9911L417.777 47.6928L417.566 47.0948H416.931V47.9911ZM423.714 67.2086V68.1048H424.981L424.559 66.9103L423.714 67.2086ZM353.996 81.359L388.587 2.22797L386.945 1.50999L352.353 80.641L353.996 81.359ZM387.766 2.76523H413.992V0.972723H387.766V2.76523ZM413.171 2.22797L447.763 81.359L449.405 80.641L414.814 1.50999L413.171 2.22797ZM448.584 80.1037H421.001V81.8963H448.584V80.1037ZM421.838 80.6785L396.29 14.2084L394.616 14.8515L420.164 81.3215L421.838 80.6785ZM395.453 15.4262H405.853V13.6337H395.453V15.4262ZM405.017 14.2084L379.469 80.6785L381.142 81.3215L406.69 14.8515L405.017 14.2084ZM380.305 80.1037H353.174V81.8963H380.305V80.1037ZM374.594 67.5069L381.376 48.2894L379.686 47.6928L372.903 66.9103L374.594 67.5069ZM380.531 48.8873H416.931V47.0948H380.531V48.8873ZM416.086 48.2894L422.869 67.5069L424.559 66.9103L417.777 47.6928L416.086 48.2894ZM423.714 66.3123H373.749V68.1048H423.714V66.3123ZM475.025 79.8696L474.706 80.7073L474.713 80.71L474.72 80.7125L475.025 79.8696ZM461.007 71.2782L460.393 71.9305L460.399 71.9363L461.007 71.2782ZM451.851 58.165L451.028 58.5211L451.851 58.165ZM451.851 24.7039L451.028 24.3479L451.851 24.7039ZM461.007 11.5908L460.399 10.9327L460.393 10.9385L461.007 11.5908ZM475.025 3.11247L475.333 3.95409L475.339 3.95166L475.025 3.11247ZM513.234 4.12987L512.862 4.94544L512.866 4.94718L513.234 4.12987ZM528.156 15.8865L528.752 16.5551L529.372 16.0019L528.868 15.342L528.156 15.8865ZM511.312 30.9214L510.61 31.4791L511.201 32.2219L511.909 31.59L511.312 30.9214ZM503.512 24.1387L503.054 24.9091L503.066 24.9163L503.078 24.9231L503.512 24.1387ZM486.442 23.0083L486.775 23.8404L486.442 23.0083ZM480.564 26.9648L479.916 26.3453L479.909 26.3528L479.902 26.3605L480.564 26.9648ZM476.833 33.2953L477.673 33.61L477.676 33.6016L476.833 33.2953ZM476.833 49.6867L475.991 49.993L475.994 50.0014L476.833 49.6867ZM480.564 55.9042L479.902 56.5085L479.909 56.5162L479.916 56.5237L480.564 55.9042ZM486.442 59.8607L486.109 60.6929L486.442 59.8607ZM503.512 58.8433L503.954 59.6228L503.961 59.619L503.512 58.8433ZM511.312 51.9476L511.909 51.279L511.201 50.6471L510.61 51.3899L511.312 51.9476ZM528.156 66.9825L528.864 67.532L529.377 66.871L528.752 66.3139L528.156 66.9825ZM513.234 78.7391L513.605 79.5547L513.61 79.5526L513.234 78.7391ZM492.66 81.9125C486.423 81.9125 480.649 80.9475 475.329 79.0266L474.72 80.7125C480.253 82.7105 486.235 83.705 492.66 83.705V81.9125ZM475.343 79.0318C470.094 77.0356 465.521 74.231 461.616 70.6201L460.399 71.9363C464.482 75.711 469.254 78.6339 474.706 80.7073L475.343 79.0318ZM461.622 70.6259C457.794 67.0186 454.811 62.749 452.673 57.809L451.028 58.5211C453.261 63.6797 456.383 68.1522 460.393 71.9305L461.622 70.6259ZM452.673 57.809C450.541 52.8838 449.469 47.4299 449.469 41.4345H447.676C447.676 47.6479 448.789 53.3476 451.028 58.5211L452.673 57.809ZM449.469 41.4345C449.469 35.4391 450.541 29.9851 452.673 25.0599L451.028 24.3479C448.789 29.5213 447.676 35.2211 447.676 41.4345H449.469ZM452.673 25.0599C454.811 20.12 457.794 15.8504 461.622 12.2431L460.393 10.9385C456.383 14.7167 453.261 19.1892 451.028 24.3479L452.673 25.0599ZM461.616 12.2489C465.519 8.64031 470.088 5.87474 475.333 3.95407L474.717 2.27087C469.26 4.26906 464.484 7.15571 460.399 10.9327L461.616 12.2489ZM475.339 3.95166C480.656 1.95793 486.427 0.956524 492.66 0.956524V-0.835983C486.232 -0.835983 480.246 0.197407 474.71 2.27328L475.339 3.95166ZM492.66 0.956524C500.317 0.956524 507.045 2.29453 512.862 4.94543L513.605 3.3143C507.515 0.53908 500.527 -0.835983 492.66 -0.835983V0.956524ZM512.866 4.94718C518.763 7.60081 523.617 11.4273 527.444 16.4309L528.868 15.342C524.856 10.0963 519.763 6.08505 513.602 3.31255L512.866 4.94718ZM527.559 15.2178L510.715 30.2527L511.909 31.59L528.752 16.5551L527.559 15.2178ZM512.014 30.3637C509.615 27.3455 506.927 25.0019 503.945 23.3543L503.078 24.9231C505.825 26.4408 508.337 28.6189 510.61 31.4791L512.014 30.3637ZM503.97 23.3683C501.03 21.6205 497.704 20.7555 494.016 20.7555V22.548C497.412 22.548 500.417 23.341 503.054 24.9091L503.97 23.3683ZM494.016 20.7555C491.13 20.7555 488.49 21.2237 486.109 22.1761L486.775 23.8404C488.916 22.9841 491.325 22.548 494.016 22.548V20.7555ZM486.109 22.1761C483.731 23.1273 481.664 24.518 479.916 26.3453L481.212 27.5843C482.78 25.945 484.631 24.6979 486.775 23.8404L486.109 22.1761ZM479.902 26.3605C478.231 28.1908 476.931 30.4058 475.991 32.989L477.676 33.6016C478.545 31.2108 479.732 29.2055 481.226 27.5691L479.902 26.3605ZM475.994 32.9806C475.046 35.5084 474.581 38.3305 474.581 41.4345H476.373C476.373 38.5095 476.812 35.9054 477.673 33.61L475.994 32.9806ZM474.581 41.4345C474.581 44.5391 475.047 47.3952 475.991 49.993L477.676 49.3804C476.812 47.0043 476.373 44.3589 476.373 41.4345H474.581ZM475.994 50.0014C476.935 52.5096 478.235 54.6829 479.902 56.5085L481.226 55.2998C479.727 53.6587 478.541 51.6871 477.673 49.372L475.994 50.0014ZM479.916 56.5237C481.664 58.351 483.731 59.7417 486.109 60.6929L486.775 59.0286C484.631 58.171 482.78 56.924 481.212 55.2847L479.916 56.5237ZM486.109 60.6929C488.49 61.6453 491.13 62.1135 494.016 62.1135V60.321C491.325 60.321 488.916 59.8849 486.775 59.0286L486.109 60.6929ZM494.016 62.1135C497.697 62.1135 501.017 61.2898 503.954 59.6228L503.07 58.0639C500.43 59.5621 497.42 60.321 494.016 60.321V62.1135ZM503.961 59.619C506.934 57.8977 509.617 55.5205 512.014 52.5053L510.61 51.3899C508.335 54.253 505.817 56.4729 503.063 58.0677L503.961 59.619ZM510.715 52.6162L527.559 67.6511L528.752 66.3139L511.909 51.279L510.715 52.6162ZM527.448 66.433C523.62 71.3645 518.762 75.195 512.857 77.9257L513.61 79.5526C519.764 76.7064 524.853 72.6991 528.864 67.532L527.448 66.433ZM512.862 77.9235C507.045 80.5745 500.317 81.9125 492.66 81.9125V83.705C500.527 83.705 507.515 82.3299 513.605 79.5547L512.862 77.9235ZM559.711 64.0434L558.816 64.0883L558.925 66.2568L560.377 64.6429L559.711 64.0434ZM558.241 34.7649L557.578 34.1627L557.328 34.4382L557.346 34.8098L558.241 34.7649ZM588.085 1.86898V0.972723H587.688L587.421 1.26677L588.085 1.86898ZM617.137 1.86898L617.801 2.47146L619.162 0.972723H617.137V1.86898ZM583.676 38.7214L584.317 39.348L584.329 39.3361L584.34 39.3239L583.676 38.7214ZM568.867 53.8694L568.227 53.2428L568.214 53.2561L568.201 53.2698L568.867 53.8694ZM535.859 81H534.962V81.8963H535.859V81ZM535.859 1.86898V0.972723H534.962V1.86898H535.859ZM562.085 1.86898H562.981V0.972723H562.085V1.86898ZM562.085 81V81.8963H562.981V81H562.085ZM587.859 81L587.144 81.5411L587.413 81.8963H587.859V81ZM564.572 50.2519L563.92 49.6366L563.399 50.1882L563.857 50.7931L564.572 50.2519ZM581.868 31.9388L582.584 31.4005L581.946 30.5506L581.216 31.3234L581.868 31.9388ZM618.72 81V81.8963H620.514L619.437 80.4617L618.72 81ZM560.606 63.9984L559.136 34.7199L557.346 34.8098L558.816 64.0883L560.606 63.9984ZM558.905 35.3671L588.749 2.47118L587.421 1.26677L557.578 34.1627L558.905 35.3671ZM588.085 2.76523H617.137V0.972723H588.085V2.76523ZM616.474 1.2665L583.013 38.1189L584.34 39.3239L617.801 2.47146L616.474 1.2665ZM583.035 38.0949L568.227 53.2428L569.508 54.4959L584.317 39.348L583.035 38.0949ZM568.201 53.2698L559.045 63.4438L560.377 64.6429L569.534 54.4689L568.201 53.2698ZM536.755 81V1.86898H534.962V81H536.755ZM535.859 2.76523H562.085V0.972723H535.859V2.76523ZM561.189 1.86898V81H562.981V1.86898H561.189ZM562.085 80.1037H535.859V81.8963H562.085V80.1037ZM588.573 80.4589L565.286 49.7108L563.857 50.7931L587.144 81.5411L588.573 80.4589ZM565.223 50.8673L582.519 32.5542L581.216 31.3234L563.92 49.6366L565.223 50.8673ZM581.151 32.477L618.003 81.5383L619.437 80.4617L582.584 31.4005L581.151 32.477ZM618.72 80.1037H587.859V81.8963H618.72V80.1037Z" fill="#2E3130" mask="url(#path-1-outside-1_104_104)"/>
</svg>
