<svg width="254" height="254" viewBox="0 0 254 254" fill="none" xmlns="http://www.w3.org/2000/svg">
<g clip-path="url(#clip0_308_7)">
<path d="M209.46 153.389C208.112 153.389 206.749 153.057 205.562 152.369C202.49 150.581 201.749 147.077 203.908 144.54L238.296 104.079L203.908 63.6176C201.749 61.0773 202.49 57.5732 205.562 55.7889C208.634 53.9989 212.873 54.6171 215.032 57.1546L252.166 100.847C253.811 102.786 253.811 105.371 252.166 107.31L215.032 151C213.71 152.557 211.601 153.389 209.46 153.389Z" fill="#002226"/>
<path d="M169.967 84.9651C173.719 84.9651 176.765 82.4474 176.765 79.3451V6.02662C176.765 2.92438 173.719 0.406616 169.967 0.406616H7.05082C7.00663 0.406616 6.96925 0.415046 6.92506 0.417856C6.79931 0.417856 6.67355 0.440336 6.5478 0.448766C6.13315 0.474056 5.7321 0.524636 5.34464 0.608936C5.1883 0.639846 5.04215 0.681996 4.8926 0.724146C4.50854 0.830926 4.14148 0.962996 3.7914 1.12317C3.70644 1.16251 3.61127 1.17656 3.5297 1.21871C3.48891 1.23838 3.46172 1.26929 3.42434 1.28896C2.9825 1.52219 2.56785 1.78633 2.20078 2.09543C2.13621 2.14882 2.08862 2.21345 2.02745 2.26684C1.73855 2.53379 1.48025 2.82041 1.25253 3.12951C1.17096 3.24191 1.09959 3.35712 1.02821 3.47233C0.851478 3.75614 0.70873 4.05119 0.589773 4.36029C0.545589 4.47831 0.494609 4.59071 0.460622 4.71154C0.334867 5.13585 0.253296 5.5714 0.253296 6.02662V202.128C0.253296 202.606 0.348462 203.064 0.484413 203.505C0.521799 203.626 0.569382 203.738 0.616965 203.853C0.752915 204.199 0.92625 204.525 1.13357 204.837C1.19815 204.93 1.24913 205.028 1.31711 205.118C1.6094 205.497 1.94588 205.849 2.33673 206.16C2.41151 206.219 2.49648 206.264 2.57465 206.323C2.92132 206.576 3.30198 206.798 3.70644 206.989C3.77781 207.023 3.83219 207.074 3.90356 207.107L109.32 252.666C110.305 253.096 111.386 253.307 112.467 253.307C113.687 253.307 114.907 253.034 115.988 252.495C118.02 251.477 119.264 249.651 119.264 247.687V207.748H169.967C173.719 207.748 176.765 205.23 176.765 202.128V126.857C176.765 123.754 173.719 121.237 169.967 121.237C166.215 121.237 163.17 123.754 163.17 126.857V196.508H119.264V51.5851C119.264 49.4917 117.857 47.5724 115.614 46.6058L34.7269 11.6466H163.17V79.3451C163.17 82.4474 166.215 84.9651 169.967 84.9651Z" fill="#002226"/>
<path d="M246.603 109.699H135.446C131.694 109.699 128.649 107.181 128.649 104.079C128.649 100.977 131.694 98.4587 135.446 98.4587H246.603C250.354 98.4587 253.4 100.977 253.4 104.079C253.4 107.181 250.358 109.699 246.603 109.699Z" fill="#002226"/>
</g>
<defs>
<clipPath id="clip0_308_7">
<rect width="254" height="254" fill="white"/>
</clipPath>
</defs>
</svg>
