<svg width="118" height="37" viewBox="0 0 118 37" fill="none" xmlns="http://www.w3.org/2000/svg">
<path d="M36.058 30.5699V18.5837H38.2291V30.5699H36.058ZM37.1435 16.2769C36.7214 16.2769 36.3671 16.1412 36.0806 15.8699C35.8092 15.5985 35.6735 15.2668 35.6735 14.8748C35.6735 14.4677 35.8092 14.1285 36.0806 13.8571C36.3671 13.5857 36.7214 13.45 37.1435 13.45C37.5657 13.45 37.9125 13.5857 38.1838 13.8571C38.4703 14.1134 38.6135 14.4375 38.6135 14.8295C38.6135 15.2366 38.4778 15.5834 38.2065 15.8699C37.9351 16.1412 37.5808 16.2769 37.1435 16.2769ZM48.7746 18.4706C49.7546 18.4706 50.6139 18.6591 51.3527 19.036C52.1066 19.4129 52.6946 19.9859 53.1167 20.7548C53.5389 21.5237 53.7499 22.4962 53.7499 23.6722V30.5699H51.5789V23.9209C51.5789 22.76 51.2924 21.8855 50.7195 21.2975C50.1616 20.7095 49.3701 20.4155 48.3449 20.4155C47.5759 20.4155 46.905 20.5663 46.3321 20.8679C45.7592 21.1694 45.3144 21.6142 44.9978 22.2022C44.6963 22.7902 44.5455 23.5214 44.5455 24.3959V30.5699H42.3744V18.5837H44.455V21.8177L44.1158 20.9583C44.5078 20.1743 45.1109 19.5637 45.925 19.1265C46.7392 18.6892 47.689 18.4706 48.7746 18.4706ZM61.228 30.5699V16.7066H55.8003V14.7391H68.8947V16.7066H63.467V30.5699H61.228ZM70.7541 30.5699V18.5837H72.8347V21.8403L72.6311 21.0262C72.9628 20.1969 73.5207 19.5637 74.3047 19.1265C75.0887 18.6892 76.0536 18.4706 77.1994 18.4706V20.5739C77.109 20.5588 77.0185 20.5512 76.9281 20.5512C76.8527 20.5512 76.7773 20.5512 76.7019 20.5512C75.541 20.5512 74.6213 20.898 73.9428 21.5915C73.2644 22.2851 72.9251 23.2877 72.9251 24.5994V30.5699H70.7541ZM86.4324 30.5699V28.0369L86.3193 27.562V23.2425C86.3193 22.3228 86.0479 21.6142 85.5051 21.1166C84.9774 20.604 84.1784 20.3477 83.1079 20.3477C82.3993 20.3477 81.7057 20.4683 81.0273 20.7095C80.3488 20.9357 79.7759 21.2448 79.3085 21.6368L78.4039 20.0085C79.022 19.5109 79.7608 19.134 80.6202 18.8777C81.4947 18.6063 82.4068 18.4706 83.3567 18.4706C85 18.4706 86.2665 18.8702 87.156 19.6692C88.0456 20.4683 88.4904 21.6895 88.4904 23.3329V30.5699H86.4324ZM82.4973 30.7055C81.6077 30.7055 80.8237 30.5548 80.1453 30.2532C79.4819 29.9517 78.9693 29.5371 78.6074 29.0094C78.2456 28.4666 78.0647 27.856 78.0647 27.1775C78.0647 26.5292 78.2154 25.9412 78.517 25.4135C78.8336 24.8859 79.3387 24.4637 80.0322 24.1471C80.7408 23.8305 81.6907 23.6722 82.8817 23.6722H86.6811V25.2326H82.9722C81.8867 25.2326 81.1554 25.4135 80.7785 25.7754C80.4016 26.1372 80.2131 26.5745 80.2131 27.0871C80.2131 27.6751 80.4468 28.15 80.9142 28.5119C81.3816 28.8586 82.0299 29.032 82.8591 29.032C83.6733 29.032 84.3819 28.8511 84.985 28.4892C85.6031 28.1274 86.0479 27.5997 86.3193 26.9062L86.749 28.3988C86.4625 29.1074 85.9574 29.6728 85.2337 30.0949C84.51 30.502 83.5979 30.7055 82.4973 30.7055ZM97.7323 30.7055C96.511 30.7055 95.418 30.4417 94.453 29.914C93.5032 29.3863 92.7569 28.6626 92.2141 27.7429C91.6714 26.8232 91.4 25.7679 91.4 24.5768C91.4 23.3857 91.6714 22.3303 92.2141 21.4106C92.7569 20.4909 93.5032 19.7748 94.453 19.2622C95.418 18.7345 96.511 18.4706 97.7323 18.4706C98.8178 18.4706 99.7827 18.6892 100.627 19.1265C101.486 19.5486 102.15 20.1819 102.617 21.0262L100.966 22.0891C100.574 21.5011 100.092 21.0714 99.5189 20.8C98.961 20.5135 98.358 20.3703 97.7097 20.3703C96.9257 20.3703 96.2246 20.5437 95.6064 20.8905C94.9883 21.2372 94.4983 21.7272 94.1364 22.3605C93.7746 22.9786 93.5937 23.7174 93.5937 24.5768C93.5937 25.4362 93.7746 26.1825 94.1364 26.8157C94.4983 27.4489 94.9883 27.9389 95.6064 28.2857C96.2246 28.6325 96.9257 28.8059 97.7097 28.8059C98.358 28.8059 98.961 28.6702 99.5189 28.3988C100.092 28.1123 100.574 27.6751 100.966 27.0871L102.617 28.1274C102.15 28.9566 101.486 29.5974 100.627 30.0497C99.7827 30.4869 98.8178 30.7055 97.7323 30.7055ZM107.037 27.6751L107.083 24.8934L113.98 18.5837H116.604L111.312 23.7852L110.136 24.7803L107.037 27.6751ZM105.273 30.5699V13.7892H107.445V30.5699H105.273ZM114.433 30.5699L109.729 24.7351L111.131 22.9937L117.101 30.5699H114.433Z" fill="white"/>
<path d="M2 0.709564L2 31.3585C2 32.2565 2.05685 33.1892 2.56919 33.9267C3.08562 34.6701 4.02954 35.4788 5.69231 35.4788C7.35507 35.4788 8.299 34.6701 8.81542 33.9267C9.32777 33.1892 9.38461 32.2565 9.38461 31.3585L9.38461 5.26805C9.38461 4.13101 9.87545 3.04931 10.7312 2.30056V2.30056C11.45 1.67162 12.3726 1.32495 13.3277 1.32495L30.3077 1.32495C32.3469 1.32495 34 2.97805 34 5.01726V5.01726C34 7.05646 32.3469 8.70956 30.3077 8.70956H20.4615C18.9321 8.70956 17.6923 9.94939 17.6923 11.4788V11.4788C17.6923 13.0082 18.9321 14.248 20.4615 14.248H25.2308C27.185 14.248 28.7692 15.8322 28.7692 17.7865V17.7865C28.7692 19.7407 27.185 21.3249 25.2308 21.3249H16.1538" stroke="#85EC68" stroke-width="2.46154"/>
</svg>
