<svg width="254" height="254" viewBox="0 0 254 254" fill="none" xmlns="http://www.w3.org/2000/svg">
<g clip-path="url(#clip0_308_3)">
<path d="M209.46 153.389C208.112 153.389 206.749 153.057 205.562 152.369C202.49 150.581 201.749 147.077 203.908 144.54L238.296 104.079L203.908 63.6176C201.749 61.0773 202.49 57.5732 205.562 55.7889C208.634 53.9989 212.873 54.6171 215.032 57.1546L252.166 100.847C253.811 102.786 253.811 105.371 252.166 107.31L215.032 151C213.71 152.557 211.601 153.389 209.46 153.389Z" fill="#405052"/>
<path d="M169.967 84.9651C173.719 84.9651 176.765 82.4474 176.765 79.3451V6.02662C176.765 2.92438 173.719 0.406616 169.967 0.406616H7.05081C7.00663 0.406616 6.96924 0.415046 6.92506 0.417856C6.7993 0.417856 6.67355 0.440336 6.54779 0.448766C6.13314 0.474056 5.73209 0.524636 5.34463 0.608936C5.18829 0.639846 5.04214 0.681996 4.8926 0.724146C4.50854 0.830926 4.14147 0.962996 3.7914 1.12317C3.70643 1.16251 3.61126 1.17656 3.52969 1.21871C3.48891 1.23838 3.46172 1.26929 3.42433 1.28896C2.98249 1.52219 2.56784 1.78633 2.20078 2.09543C2.1362 2.14882 2.08862 2.21345 2.02744 2.26684C1.73854 2.53379 1.48024 2.82041 1.25252 3.12951C1.17096 3.24191 1.09958 3.35712 1.02821 3.47233C0.85147 3.75614 0.708722 4.05119 0.589766 4.36029C0.545582 4.47831 0.494602 4.59071 0.460614 4.71154C0.33486 5.13585 0.253288 5.5714 0.253288 6.02662V202.128C0.253288 202.606 0.348455 203.064 0.484405 203.505C0.521792 203.626 0.569374 203.738 0.616957 203.853C0.752908 204.199 0.926242 204.525 1.13357 204.837C1.19814 204.93 1.24912 205.028 1.3171 205.118C1.60939 205.497 1.94587 205.849 2.33673 206.16C2.4115 206.219 2.49647 206.264 2.57464 206.323C2.92131 206.576 3.30198 206.798 3.70643 206.989C3.7778 207.023 3.83218 207.074 3.90356 207.107L109.32 252.666C110.305 253.096 111.386 253.307 112.467 253.307C113.687 253.307 114.907 253.034 115.988 252.495C118.02 251.477 119.264 249.651 119.264 247.687V207.748H169.967C173.719 207.748 176.765 205.23 176.765 202.128V126.857C176.765 123.754 173.719 121.237 169.967 121.237C166.215 121.237 163.17 123.754 163.17 126.857V196.508H119.264V51.5851C119.264 49.4917 117.857 47.5724 115.614 46.6058L34.7269 11.6466H163.17V79.3451C163.17 82.4474 166.215 84.9651 169.967 84.9651Z" fill="#405052"/>
<path d="M246.603 109.699H135.446C131.694 109.699 128.649 107.181 128.649 104.079C128.649 100.977 131.694 98.4587 135.446 98.4587H246.603C250.354 98.4587 253.4 100.977 253.4 104.079C253.4 107.181 250.358 109.699 246.603 109.699Z" fill="#405052"/>
</g>
<defs>
<clipPath id="clip0_308_3">
<rect width="254" height="254" fill="white"/>
</clipPath>
</defs>
</svg>
