<svg width="210" height="254" viewBox="0 0 210 254" fill="none" xmlns="http://www.w3.org/2000/svg">
<path d="M173.176 153.389C172.061 153.389 170.934 153.057 169.953 152.369C167.413 150.581 166.8 147.077 168.585 144.54L197.016 104.079L168.585 63.6176C166.8 61.0773 167.413 57.5732 169.953 55.7889C172.493 53.9989 175.997 54.6171 177.782 57.1546L208.484 100.847C209.844 102.786 209.844 105.371 208.484 107.31L177.782 151C176.689 152.557 174.946 153.389 173.176 153.389Z" fill="#405052"/>
<path d="M140.524 84.9651C143.626 84.9651 146.144 82.4474 146.144 79.3451V6.0266C146.144 2.92436 143.626 0.406601 140.524 0.406601H5.82941C5.79288 0.406601 5.76197 0.415031 5.72544 0.417841C5.62147 0.417841 5.5175 0.440321 5.41353 0.448751C5.07071 0.474041 4.73913 0.524621 4.41879 0.608921C4.28953 0.639831 4.1687 0.681981 4.04506 0.724131C3.72753 0.830911 3.42405 0.962981 3.13462 1.12315C3.06437 1.16249 2.98569 1.17654 2.91825 1.21869C2.88453 1.23836 2.86205 1.26927 2.83114 1.28894C2.46584 1.52217 2.12302 1.78631 1.81954 2.09541C1.76615 2.1488 1.72681 2.21343 1.67623 2.26682C1.43738 2.53377 1.22382 2.82039 1.03555 3.12949C0.968113 3.24189 0.909102 3.3571 0.850092 3.47231C0.703972 3.75612 0.585952 4.05117 0.487602 4.36027C0.451072 4.47829 0.408923 4.59069 0.380823 4.71152C0.276853 5.13583 0.209412 5.57138 0.209412 6.0266V202.128C0.209412 202.606 0.288093 203.064 0.400493 203.505C0.431403 203.626 0.470743 203.738 0.510083 203.853C0.622483 204.199 0.765791 204.525 0.937201 204.837C0.990591 204.93 1.03274 205.028 1.08894 205.118C1.3306 205.497 1.60879 205.849 1.93194 206.16C1.99376 206.219 2.06401 206.264 2.12864 206.323C2.41526 206.576 2.72998 206.798 3.06437 206.989C3.12338 207.023 3.16834 207.074 3.22735 207.107L90.3823 252.666C91.1972 253.096 92.0908 253.307 92.9844 253.307C93.9932 253.307 95.002 253.034 95.8955 252.495C97.5759 251.477 98.6044 249.651 98.6044 247.687V207.748H140.524C143.626 207.748 146.144 205.23 146.144 202.128V126.857C146.144 123.754 143.626 121.237 140.524 121.237C137.422 121.237 134.904 123.754 134.904 126.857V196.508H98.6044V51.5851C98.6044 49.4917 97.441 47.5724 95.5864 46.6058L28.7112 11.6466H134.904V79.3451C134.904 82.4474 137.422 84.9651 140.524 84.9651Z" fill="#405052"/>
<path d="M203.884 109.699H111.983C108.881 109.699 106.363 107.181 106.363 104.079C106.363 100.977 108.881 98.4587 111.983 98.4587H203.884C206.986 98.4587 209.504 100.977 209.504 104.079C209.504 107.181 206.989 109.699 203.884 109.699Z" fill="#405052"/>
</svg>
