<svg width="27" height="27" viewBox="0 0 27 27" fill="none" xmlns="http://www.w3.org/2000/svg">
<g id="Group 9">
<path id="Vector" d="M2.43664 1.125H8.7027C9.4271 1.125 10.0143 1.71224 10.0143 2.43664V8.7027C10.0143 9.4271 9.4271 10.0143 8.7027 10.0143H2.43664C1.71224 10.0143 1.125 9.4271 1.125 8.7027V2.43664C1.125 1.71224 1.71224 1.125 2.43664 1.125Z" fill="#002226" stroke="#002226" stroke-width="2.25" stroke-linecap="round" stroke-linejoin="round"/>
<path id="Vector_2" d="M18.2974 1.125H24.5634C25.2878 1.125 25.8751 1.71224 25.8751 2.43664V8.7027C25.8751 9.4271 25.2878 10.0143 24.5634 10.0143H18.2974C17.573 10.0143 16.9857 9.4271 16.9857 8.7027V2.43664C16.9857 1.71224 17.573 1.125 18.2974 1.125Z" fill="#002226" stroke="#002226" stroke-width="2.25" stroke-linecap="round" stroke-linejoin="round"/>
<path id="Vector_3" d="M2.43664 16.9857H8.7027C9.4271 16.9857 10.0143 17.5729 10.0143 18.2973V24.5634C10.0143 25.2878 9.4271 25.875 8.7027 25.875H2.43664C1.71224 25.875 1.125 25.2878 1.125 24.5634V18.2973C1.125 17.5729 1.71224 16.9857 2.43664 16.9857Z" fill="#002226" stroke="#002226" stroke-width="2.25" stroke-linecap="round" stroke-linejoin="round"/>
<path id="Vector_4" d="M18.2974 16.9857H24.5634C25.2878 16.9857 25.8751 17.5729 25.8751 18.2973V24.5634C25.8751 25.2878 25.2878 25.875 24.5634 25.875H18.2974C17.573 25.875 16.9857 25.2878 16.9857 24.5634V18.2973C16.9857 17.5729 17.573 16.9857 18.2974 16.9857Z" fill="#002226" stroke="#002226" stroke-width="2.25" stroke-linecap="round" stroke-linejoin="round"/>
</g>
</svg>
