<svg width="27" height="27" viewBox="0 0 27 27" fill="none" xmlns="http://www.w3.org/2000/svg">
<g clip-path="url(#clip0_187_134)">
<path d="M26.397 16.258C23.9262 15.2346 23.9262 11.7348 26.397 10.7115C26.7476 10.5663 26.9142 10.1641 26.769 9.81349L25.4742 6.6877C25.3289 6.3371 24.9268 6.17054 24.5762 6.31576C22.1053 7.33912 19.6307 4.86445 20.6543 2.39393C20.7996 2.04333 20.633 1.64116 20.2824 1.49594L17.1563 0.200818C16.8057 0.0555977 16.4035 0.222156 16.2583 0.572758C15.235 3.04357 11.7352 3.04357 10.7118 0.572758C10.5666 0.222156 10.1644 0.0555977 9.81381 0.200818L6.68773 1.49565C6.33713 1.64087 6.17057 2.04304 6.31579 2.39364C7.33915 4.86445 4.86448 7.33912 2.39367 6.31576C2.04307 6.17054 1.6409 6.3371 1.49568 6.6877L0.200848 9.81349C0.0556282 10.1641 0.222187 10.5663 0.572789 10.7115C3.0436 11.7348 3.0436 15.2346 0.572789 16.258C0.222187 16.4032 0.0556282 16.8054 0.200848 17.156L1.49568 20.2818C1.6409 20.6324 2.04307 20.7989 2.39367 20.6537C4.86448 19.6304 7.33915 22.105 6.3155 24.5758C6.17028 24.9264 6.33683 25.3286 6.68744 25.4738L9.81322 26.7687C10.1638 26.9139 10.566 26.7473 10.7112 26.3967C11.7346 23.9259 15.2344 23.9259 16.2577 26.3967C16.4029 26.7473 16.8051 26.9139 17.1557 26.7687L20.2815 25.4738C20.6321 25.3286 20.7987 24.9264 20.6534 24.5758C19.6301 22.105 22.1048 19.6304 24.5756 20.654C24.9262 20.7992 25.3283 20.6327 25.4736 20.2821L26.7684 17.1563C26.9142 16.8054 26.7476 16.4035 26.397 16.258ZM13.4849 19.1313C10.3665 19.1313 7.83853 16.6033 7.83853 13.4849C7.83853 10.3665 10.3665 7.8385 13.4849 7.8385C16.6033 7.8385 19.1313 10.3665 19.1313 13.4849C19.1313 16.6033 16.6033 19.1313 13.4849 19.1313Z" fill="#002226"/>
</g>
<defs>
<clipPath id="clip0_187_134">
<rect width="27" height="27" fill="white"/>
</clipPath>
</defs>
</svg>
